<?xml version="1.0" encoding="UTF-8"?>
<svg version="1.1" xmlns="http://www.w3.org/2000/svg" viewBox="0 0 480 140">
<path d="M0 0 C16.83 0 33.66 0 51 0 C51 16.83 51 33.66 51 51 C34.17 51 17.34 51 0 51 C0 34.17 0 17.34 0 0 Z " fill="#0096A4" transform="translate(15,74)"/>
<path d="M0 0 C17.16 0 34.32 0 52 0 C52 17.16 52 34.32 52 52 C43.42 52 34.84 52 26 52 C26 43.42 26 34.84 26 26 C17.42 26 8.84 26 0 26 C0 17.42 0 8.84 0 0 Z " fill="#84B135" transform="translate(44,44)"/>
<path d="M0 0 C16.83 0 33.66 0 51 0 C51 16.83 51 33.66 51 51 C42.42 51 33.84 51 25 51 C25 42.75 25 34.5 25 26 C16.75 26 8.5 26 0 26 C0 17.42 0 8.84 0 0 Z " fill="#E36B00" transform="translate(74,15)"/>
<text x="145" y="92" font-family="'Manrope', 'Segoe UI', system-ui, sans-serif" font-size="58" font-weight="500" fill="#041627" letter-spacing="-0.02em">Juniper Mist</text>
<text x="448" y="58" font-family="'Manrope', 'Segoe UI', system-ui, sans-serif" font-size="18" font-weight="400" fill="#041627">™</text>
</svg>
